<?xml version="1.0" encoding="UTF-8"?>
<!DOCTYPE svg PUBLIC "-//W3C//DTD SVG 1.1//EN" "http://www.w3.org/Graphics/SVG/1.1/DTD/svg11.dtd">
<svg xmlns="http://www.w3.org/2000/svg" xmlns:xlink="http://www.w3.org/1999/xlink" viewBox="-100 -100 200 200" >

<rect fill="#D88" x="-100" y="-100" width="200" height="200"/>

<g id="new" transform="rotate(180) translate(0,-19)" >

  <path fill="#A00" d="m42 -77 q18 0 33 14 q 12 -6 23 -16 q-2 25 -10 43 c0 110 -44 155 -88 155 c-44 0 -88 -44 -88 -155 q-8 -18 -10 -43 q11 10  23 16 q15 -14 33 -14z"/>

  <path  stroke="#FFF" stroke-width="6" fill="#A00" d="m0 16 c30 0 38 -2  48 -2 c17 0 33 16  33  52 c0 34 -12 52 -31  52 c-15 0 -30 -7 -50 -7 c-20 0 -35 7 -50  7 c-19 0 -31 -18 -31 -52 c0 -36 16 -52 33 -52 c10 0 18 2  48 2z"/>
  <circle fill="#FFF" cx="45" cy="49" r="12"/> <circle fill="#FFF" cx="-45" cy="49" r="12"/>

  <circle fill="#FFF" cx="42" cy="-31" r="40"/> <circle fill="#000" cx="42" cy="-31" r="20.5"/>
  <circle fill="#FFF" cx="-42" cy="-31" r="40"/> <path fill="#666" transform="translate(-42,-31) rotate(55)" d="m-7 7 v20 q7 2 14 0 v-20 h20 q2 -7 0 -14 h-20 v-20 q -7 -2  -14 0 v20 h-20 q-2 7 0 14z"/>

</g>

</svg>