<?xml version="1.0" encoding="UTF-8" standalone="no"?>
<!-- Created with Sodipodi ("http://www.sodipodi.com/") -->

<svg
   xmlns:dc="http://purl.org/dc/elements/1.1/"
   xmlns:cc="http://creativecommons.org/ns#"
   xmlns:rdf="http://www.w3.org/1999/02/22-rdf-syntax-ns#"
   xmlns:svg="http://www.w3.org/2000/svg"
   xmlns="http://www.w3.org/2000/svg"
   xmlns:sodipodi="http://sodipodi.sourceforge.net/DTD/sodipodi-0.dtd"
   xmlns:inkscape="http://www.inkscape.org/namespaces/inkscape"
   inkscape:version="0.91 r13725"
   sodipodi:docname="alexine.svg"
   height="100"
   width="100"
   sodipodi:version="0.32"
   id="svg1"
   version="1.1">
  <metadata
     id="metadata32">
    <rdf:RDF>
      <cc:Work
         rdf:about="">
        <dc:format>image/svg+xml</dc:format>
        <dc:type
           rdf:resource="http://purl.org/dc/dcmitype/StillImage" />
        <dc:title></dc:title>
      </cc:Work>
    </rdf:RDF>
  </metadata>
  <defs
     id="defs3" />
  <sodipodi:namedview
     inkscape:current-layer="svg1"
     inkscape:window-y="18"
     inkscape:window-x="318"
     inkscape:window-height="761"
     inkscape:window-width="958"
     inkscape:cy="63.593833"
     inkscape:cx="61.178653"
     inkscape:zoom="2"
     id="base"
     showgrid="false"
     inkscape:snap-bbox="false"
     inkscape:snap-global="true"
     inkscape:window-maximized="0"
     units="px" />
  <g
     transform="matrix(0.28183379,0,0,0.28183379,-172.82475,-111.02995)"
     id="g176">
    <ellipse
       transform="matrix(1.02174,0,0,1.02174,-299.416,85.7564)"
       id="path166"
       style="fill:#ffde00;fill-opacity:1;fill-rule:evenodd;stroke:#000000;stroke-width:22.02129936;stroke-linecap:butt;stroke-linejoin:miter;stroke-opacity:1"
       cx="1066.8474"
       cy="475.27606"
       rx="142.30524"
       ry="148.93437" />
    <ellipse
       transform="matrix(0.591973,0,0,0.523224,159.08,309.039)"
       id="path168"
       style="fill:#ffde00;fill-opacity:1;fill-rule:evenodd;stroke:#000000;stroke-width:38.6094017;stroke-linecap:butt;stroke-linejoin:miter;stroke-opacity:1"
       cx="1066.8474"
       cy="475.27606"
       rx="142.30524"
       ry="148.93437" />
    <rect
       transform="translate(-1.41602,0)"
       y="561.1687"
       x="694.39026"
       height="88.691116"
       width="195.3015"
       id="rect170"
       style="font-size:12px;fill:#ffde00;fill-opacity:1;fill-rule:evenodd;stroke-width:1pt" />
    <g
       id="g173">
      <ellipse
         transform="translate(185,-158.75)"
         id="path171"
         style="fill:#000000;fill-opacity:1;fill-rule:evenodd;stroke:none;stroke-width:1pt;stroke-linecap:butt;stroke-linejoin:miter;stroke-opacity:1"
         cx="565"
         cy="783.75"
         rx="25"
         ry="31.25" />
      <ellipse
         transform="translate(266.25,-158.75)"
         id="path172"
         style="fill:#000000;fill-opacity:1;fill-rule:evenodd;stroke:none;stroke-width:1pt;stroke-linecap:butt;stroke-linejoin:miter;stroke-opacity:1"
         cx="565"
         cy="783.75"
         rx="25"
         ry="31.25" />
    </g>
  </g>
  <g
     transform="matrix(0.28183379,0,0,0.28183379,-118.32228,-120.51797)"
     id="layer1">
    <g
       transform="translate(5,-1.4286)"
       id="g3582">
      <g
         id="g4251"
         transform="matrix(0.53241297,0,0,0.53241297,520.6558,511.12657)">
        <path
           style="fill:#f62e00"
           inkscape:connector-curvature="0"
           id="path3586"
           d="m 310.68,466.55 c -9.3742,-2.6922 -17.791,-12.181 -18.703,-21.083 -0.84278,-8.2337 -0.7801,-8.1818 -6.1062,-5.0511 -23.663,13.909 -51.471,-23.624 -32.518,-43.891 3.2312,-3.4554 2.4371,-5.3652 -2.5631,-6.1648 -25.736,-4.1154 -18.359,-53.5 8.01,-53.623 5.815,-0.0272 6.577,-1.1347 3.6293,-5.2744 -15.961,-22.415 22.924,-51.991 43.37,-32.988 3.0248,2.8114 5.8097,2.4433 5.8097,-0.7678 0,-7.0012 8.152,-15.114 17.094,-17.011 18.817,-3.9933 36.906,7.4894 36.906,23.428 0,4.9998 1.2907,6.4837 3.813,4.3836 22.368,-18.624 53.471,20.698 34.026,43.019 -3.1965,3.6693 -2.9739,5.1901 0.75955,5.1901 7.4034,0 15.474,7.9192 17.421,17.094 4.0066,18.88 -7.136,36.906 -22.813,36.906 -6.3837,0 -6.6299,0.42283 -3.4251,5.8817 13.966,23.788 -27.13,52.887 -44.734,31.676 -2.2148,-2.6687 -3.7667,-1.7312 -4.9567,2.9946 -3.1753,12.61 -19.508,19.738 -35.02,15.283 z m 15.237,-2.9681 c 15.1,-3.0324 19.767,-14.868 14.142,-35.864 -3.0639,-11.437 -2.8784,-11.227 -10.184,-11.512 -3.2191,-0.12577 -8.4737,-0.99057 -11.677,-1.9218 -12.671,-3.6837 -27.583,24.484 -20.599,38.911 4.4125,9.115 15.111,13.039 28.318,10.387 z m 51.439,-14.428 c 17.266,-8.6039 22.519,-26.38 10.964,-37.101 -12.497,-11.594 -22.478,-14.571 -28.539,-8.5108 -3.2366,3.2366 -8.4246,7.1274 -11.529,8.6461 -3.1042,1.5187 -5.644,2.9599 -5.644,3.2025 0,1.2644 6.2258,25.231 7.1789,27.635 3.2949,8.3126 17.049,11.37 27.569,6.1277 z m -92.17,-13.52 c 4.792,-3.4312 8.5544,-8.7045 15.89,-22.271 2.9736,-5.4993 2.9736,-5.4993 -3.0974,-11.822 -3.339,-3.4772 -6.8262,-7.7827 -7.7493,-9.5678 -2.0227,-3.9114 -2.1229,-3.9155 -15.491,-0.63708 -15.314,3.7557 -20.686,7.5066 -23.076,16.114 -6.1051,21.984 16.104,40.656 33.523,28.183 z m 116.61,-29.09 c 10.029,-3.0048 16.933,-13.657 16.96,-26.17 0.0409,-18.73 -9.234,-23.964 -32.164,-18.152 -16.055,4.0697 -14.989,3.2185 -14.989,11.968 0,5.0575 -0.69082,9.517 -2.1092,13.616 -2.4756,7.1534 -3.17,6.1998 10.093,13.859 11.24,6.4905 14.464,7.1988 22.209,4.8782 z m -130.87,-21.345 c 15.348,-3.8006 14.277,-2.8606 14.964,-13.137 0.32473,-4.8629 1.3053,-10.843 2.1791,-13.289 1.4852,-4.1572 1.473,-4.5575 -0.18645,-6.1413 -22.31,-21.293 -49.177,-13.284 -49.253,14.681 -0.0512,18.87 8.7158,23.725 32.297,17.886 z m 113.55,-29.423 c 22.905,-5.8421 29.602,-23.917 15.018,-40.528 -12.361,-14.079 -27.267,-9.0245 -40.315,13.669 -6.6551,11.575 -6.5498,10.463 -1.4536,15.35 2.267,2.1741 5.6558,6.3154 7.5307,9.203 4.0563,6.247 3.8596,6.2234 19.22,2.3056 z m -87.045,-11.978 c 2.7073,-2.7073 7.6787,-6.3138 11.048,-8.0144 3.3689,-1.7006 6.1252,-3.501 6.1252,-4.001 0,-11.56 -8.6918,-32.2 -14.6,-34.668 -22.616,-9.4495 -48.9,22.383 -31.465,38.106 12.961,11.688 22.846,14.623 28.892,8.5776 z m 56.012,-19.454 c 15.92,-25.849 9.2756,-41.587 -17.09,-40.482 -19.092,0.79972 -25.114,11.871 -19.136,35.175 3.2768,12.773 2.8124,12.298 12.643,12.949 4.5343,0.30046 9.8192,1.2461 11.744,2.1015 1.925,0.85533 3.7998,1.5728 4.1662,1.5943 0.36639,0.0215 3.8192,-5.0805 7.673,-11.338 z" />
        <path
           style="fill:#4e4643"
           inkscape:connector-curvature="0"
           id="path3584"
           d="m 310.68,466.55 c -9.3742,-2.6922 -17.791,-12.181 -18.703,-21.083 -0.84278,-8.2337 -0.7801,-8.1818 -6.1062,-5.0511 -23.663,13.909 -51.471,-23.624 -32.518,-43.891 3.2312,-3.4554 2.4371,-5.3652 -2.5631,-6.1648 -25.736,-4.1154 -18.359,-53.5 8.01,-53.623 5.815,-0.0272 6.577,-1.1347 3.6293,-5.2744 -15.961,-22.415 22.924,-51.991 43.37,-32.988 3.0248,2.8114 5.8097,2.4433 5.8097,-0.7678 0,-7.0012 8.152,-15.114 17.094,-17.011 18.817,-3.9933 36.906,7.4894 36.906,23.428 0,4.9998 1.2907,6.4837 3.813,4.3836 22.368,-18.624 53.471,20.698 34.026,43.019 -3.1965,3.6693 -2.9739,5.1901 0.75955,5.1901 7.4034,0 15.474,7.9192 17.421,17.094 4.0066,18.88 -7.136,36.906 -22.813,36.906 -6.3837,0 -6.6299,0.42283 -3.4251,5.8817 13.966,23.788 -27.13,52.887 -44.734,31.676 -2.2148,-2.6687 -3.7667,-1.7312 -4.9567,2.9946 -3.1753,12.61 -19.508,19.738 -35.02,15.283 z m 15.237,-2.9681 c 15.1,-3.0324 19.767,-14.868 14.142,-35.864 -3.0639,-11.437 -2.8784,-11.227 -10.184,-11.512 -3.2191,-0.12577 -8.4737,-0.99057 -11.677,-1.9218 -12.671,-3.6837 -27.583,24.484 -20.599,38.911 4.4125,9.115 15.111,13.039 28.318,10.387 z m 51.439,-14.428 c 17.266,-8.6039 22.519,-26.38 10.964,-37.101 -12.497,-11.594 -22.478,-14.571 -28.539,-8.5108 -3.2366,3.2366 -8.4246,7.1274 -11.529,8.6461 -3.1042,1.5187 -5.644,2.9599 -5.644,3.2025 0,1.2644 6.2258,25.231 7.1789,27.635 3.2949,8.3126 17.049,11.37 27.569,6.1277 z m -92.17,-13.52 c 4.792,-3.4312 8.5544,-8.7045 15.89,-22.271 2.9736,-5.4993 2.9736,-5.4993 -3.0974,-11.822 -3.339,-3.4772 -6.8262,-7.7827 -7.7493,-9.5678 -2.0227,-3.9114 -2.1229,-3.9155 -15.491,-0.63708 -15.314,3.7557 -20.686,7.5066 -23.076,16.114 -6.1051,21.984 16.104,40.656 33.523,28.183 z m 58.686,-28.796 c 41.006,-19.57 21.363,-79.018 -22.693,-68.683 -28.881,6.7757 -40.195,40.278 -20.838,61.705 9.9229,10.983 28.798,14.009 43.531,6.9779 z m 57.924,-0.28603 c 10.029,-3.0048 16.933,-13.657 16.96,-26.17 0.0409,-18.73 -9.234,-23.964 -32.164,-18.152 -16.055,4.0697 -14.989,3.2185 -14.989,11.968 0,5.0575 -0.69082,9.517 -2.1092,13.616 -2.4756,7.1534 -3.17,6.1998 10.093,13.859 11.24,6.4905 14.464,7.1988 22.209,4.8782 z m -130.87,-21.345 c 15.348,-3.8006 14.277,-2.8606 14.964,-13.137 0.32473,-4.8629 1.3053,-10.843 2.1791,-13.289 1.4852,-4.1572 1.473,-4.5575 -0.18645,-6.1413 -22.31,-21.293 -49.177,-13.284 -49.253,14.681 -0.0512,18.87 8.7158,23.725 32.297,17.886 z m 113.55,-29.423 c 22.905,-5.8421 29.602,-23.917 15.018,-40.528 -12.361,-14.079 -27.267,-9.0245 -40.315,13.669 -6.6551,11.575 -6.5498,10.463 -1.4536,15.35 2.267,2.1741 5.6558,6.3154 7.5307,9.203 4.0563,6.247 3.8596,6.2234 19.22,2.3056 z m -87.045,-11.978 c 2.7073,-2.7073 7.6787,-6.3138 11.048,-8.0144 3.3689,-1.7006 6.1252,-3.501 6.1252,-4.001 0,-11.56 -8.6918,-32.2 -14.6,-34.668 -22.616,-9.4495 -48.9,22.383 -31.465,38.106 12.961,11.688 22.846,14.623 28.892,8.5776 z m 56.012,-19.454 c 15.92,-25.849 9.2756,-41.587 -17.09,-40.482 -19.092,0.79972 -25.114,11.871 -19.136,35.175 3.2768,12.773 2.8124,12.298 12.643,12.949 4.5343,0.30046 9.8192,1.2461 11.744,2.1015 1.925,0.85533 3.7998,1.5728 4.1662,1.5943 0.36639,0.0215 3.8192,-5.0805 7.673,-11.338 z" />
        <path
           transform="translate(-42.591657,12.959489)"
           inkscape:connector-curvature="0"
           id="path3433"
           d="m 310.80687,425.78986 c -3.63845,-0.97843 -6.47511,-2.71419 -9.80521,-5.99982 -6.55113,-6.46366 -8.9805,-15.46641 -6.64146,-24.61195 1.03893,-4.06219 2.32625,-6.3699 4.85215,-8.69819 3.88742,-3.5833 7.78132,-5.21575 19.38527,-8.12693 7.30956,-1.83381 11.21286,-2.34936 12.25604,-1.61878 0.24904,0.17442 1.35769,1.67675 2.46366,3.33853 1.10598,1.66177 4.25275,5.52064 6.99282,8.57527 4.14694,4.62299 4.98195,5.784 4.98195,6.92697 0,1.59898 -5.82452,12.35596 -9.95834,18.3915 -6.91386,10.09449 -15.52309,14.24466 -24.52688,11.8234 z"
           style="opacity:1;fill:#ff00ff;fill-opacity:1;fill-rule:nonzero;stroke:#b70097;stroke-width:1.347;stroke-linecap:round;stroke-linejoin:round;stroke-miterlimit:4;stroke-dasharray:none;stroke-opacity:1" />
        <path
           transform="translate(-42.591657,12.959489)"
           inkscape:connector-curvature="0"
           id="path3435"
           d="m 290.96239,373.32651 c -6.8073,-2.15539 -10.05903,-9.37617 -9.40203,-20.8781 0.28242,-4.94436 1.08816,-8.38637 2.82913,-12.08564 5.74273,-12.20238 19.93992,-15.98118 33.83574,-9.00592 4.16905,2.09274 8.68485,5.2538 11.29417,7.90593 l 2.13995,2.17505 -0.52751,1.83644 c -1.38848,4.83373 -2.29318,9.92927 -2.856,16.08593 -0.68542,7.49764 -1.06593,8.50287 -3.62765,9.58332 -2.20166,0.92859 -13.69339,3.77704 -18.60257,4.61101 -5.64907,0.95967 -11.61716,0.86945 -15.08323,-0.22802 z"
           style="opacity:1;fill:#ff00ff;fill-opacity:1;fill-rule:nonzero;stroke:#b70097;stroke-width:1.347;stroke-linecap:round;stroke-linejoin:round;stroke-miterlimit:4;stroke-dasharray:none;stroke-opacity:1" />
        <path
           transform="translate(-42.591657,12.959489)"
           inkscape:connector-curvature="0"
           id="path3437"
           d="m 328.0269,332.85768 c -4.9942,-1.61651 -10.85923,-5.40363 -16.14634,-10.42586 -5.22191,-4.96031 -6.93751,-9.60398 -5.87515,-15.90241 0.87964,-5.21508 3.69571,-10.28251 8.18298,-14.725 3.99417,-3.95431 6.99351,-5.94733 11.5761,-7.69217 2.49091,-0.94843 3.6245,-1.11142 7.8736,-1.13209 5.94327,-0.0289 8.58753,0.72229 10.98712,3.12133 4.85909,4.85798 10.50012,18.24326 11.96857,28.39953 0.36115,2.49781 0.39291,3.90361 0.0987,4.36997 -0.23852,0.37815 -1.65347,1.38671 -3.14431,2.24126 -4.97394,2.85102 -10.35496,6.52684 -12.7233,8.69137 -4.18609,3.82584 -7.77077,4.68128 -12.798,3.05407 z"
           style="opacity:1;fill:#ff00ff;fill-opacity:1;fill-rule:nonzero;stroke:#b70097;stroke-width:1.347;stroke-linecap:round;stroke-linejoin:round;stroke-miterlimit:4;stroke-dasharray:none;stroke-opacity:1" />
        <path
           transform="translate(-42.591657,12.959489)"
           inkscape:connector-curvature="0"
           id="path3441"
           d="m 385.16839,321.36701 c -3.32748,-1.28547 -8.21874,-2.20649 -13.76269,-2.5915 -5.43931,-0.37774 -7.54927,-1.22528 -8.60877,-3.45802 -1.01818,-2.14565 -3.92195,-13.73814 -4.51905,-18.04103 -2.54638,-18.35007 5.65452,-26.89771 24.99764,-26.05456 8.64634,0.37689 13.54977,2.13982 17.26827,6.20846 2.77907,3.04075 3.67487,5.67905 3.63481,10.7052 -0.0623,7.81264 -3.64541,16.34364 -12.27049,29.21444 -1.78047,2.65692 -3.43145,4.87708 -3.66885,4.93369 -0.2374,0.0566 -1.61929,-0.3559 -3.07087,-0.91668 z"
           style="opacity:1;fill:#ff00ff;fill-opacity:1;fill-rule:nonzero;stroke:#b70097;stroke-width:1.347;stroke-linecap:round;stroke-linejoin:round;stroke-miterlimit:4;stroke-dasharray:none;stroke-opacity:1" />
        <path
           transform="translate(-42.591657,12.959489)"
           inkscape:connector-curvature="0"
           id="path3443"
           d="m 411.67743,344.65966 c -0.6406,-0.34775 -2.36933,-2.39105 -3.84162,-4.54066 -1.4723,-2.14961 -4.46519,-5.79053 -6.65088,-8.09094 -2.18569,-2.3004 -4.09731,-4.57353 -4.24804,-5.05139 -0.33904,-1.07483 1.20059,-4.39275 5.01776,-10.8133 6.02457,-10.13344 11.89556,-16.52231 17.91836,-19.49894 3.10442,-1.53429 3.50884,-1.62279 7.41544,-1.62279 3.83342,0 4.34958,0.107 7.14428,1.48102 5.29452,2.60306 10.76125,8.93947 13.44511,15.58404 4.71101,11.6633 -0.98795,22.71533 -14.64477,28.40068 -3.75876,1.56477 -16.56534,4.82743 -18.84826,4.80185 -0.84846,-0.009 -2.06678,-0.30181 -2.70738,-0.64957 z"
           style="opacity:1;fill:#ff00ff;fill-opacity:1;fill-rule:nonzero;stroke:#b70097;stroke-width:1.347;stroke-linecap:round;stroke-linejoin:round;stroke-miterlimit:4;stroke-dasharray:none;stroke-opacity:1" />
        <path
           transform="translate(-42.591657,12.959489)"
           inkscape:connector-curvature="0"
           id="path3445"
           d="m 432.84622,393.70529 c -3.93695,-1.25914 -18.36007,-9.31028 -20.75941,-11.58813 -1.46828,-1.39393 -1.47579,-2.13835 -0.0647,-6.41355 1.62531,-4.92422 2.29858,-9.21327 2.31569,-14.75195 0.0183,-5.93155 0.43015,-6.9394 3.34872,-8.19493 2.37213,-1.02046 12.25872,-3.56835 18.03201,-4.64705 5.17845,-0.96757 11.80113,-0.98969 14.97046,-0.05 6.98681,2.07151 10.27989,8.14916 10.27989,18.97242 0,5.92804 -0.96082,10.16237 -3.3282,14.66752 -5.04404,9.59881 -15.89381,14.85237 -24.79447,12.0057 z"
           style="opacity:1;fill:#ff00ff;fill-opacity:1;fill-rule:nonzero;stroke:#b70097;stroke-width:1.347;stroke-linecap:round;stroke-linejoin:round;stroke-miterlimit:4;stroke-dasharray:none;stroke-opacity:1" />
        <path
           transform="translate(-42.591657,12.959489)"
           inkscape:connector-curvature="0"
           id="path3447"
           d="m 403.3463,437.97071 c -4.70348,-1.23811 -8.17325,-3.49168 -9.86614,-6.40794 -0.59149,-1.01894 -1.97191,-5.12682 -3.0676,-9.12862 -1.97093,-7.19845 -4.97889,-19.13819 -4.97889,-19.76311 0,-0.17786 2.03451,-1.43242 4.52113,-2.78789 4.05331,-2.20949 6.36245,-3.88382 13.28108,-9.62992 3.9291,-3.26322 8.70889,-3.26329 15.15005,-2.3e-4 5.11367,2.59056 12.13125,8.23278 15.01794,12.07461 2.02449,2.69434 3.39375,6.93722 3.39375,10.5161 0,9.91939 -8.84292,20.57602 -20.28661,24.44746 -3.46919,1.17364 -10.00584,1.51105 -13.16471,0.67954 z"
           style="opacity:1;fill:#ff00ff;fill-opacity:1;fill-rule:nonzero;stroke:#b70097;stroke-width:1.347;stroke-linecap:round;stroke-linejoin:round;stroke-miterlimit:4;stroke-dasharray:none;stroke-opacity:1" />
        <path
           transform="translate(-42.591657,12.959489)"
           inkscape:connector-curvature="0"
           id="path3449"
           d="m 353.83044,450.43209 c -6.12323,-1.55037 -10.99132,-5.35043 -13.41873,-10.47473 -1.34656,-2.84261 -1.37817,-3.04845 -1.37449,-8.95232 0.004,-5.82064 0.0605,-6.20403 1.54718,-10.42731 2.13963,-6.07814 4.77629,-10.54564 8.37654,-14.193 3.23246,-3.27474 6.08953,-4.91335 8.74259,-5.01411 0.88909,-0.0338 3.7531,0.35355 6.36446,0.8607 2.61136,0.50715 6.7462,1.09199 9.18854,1.29964 5.5405,0.47107 6.14884,0.93834 7.64451,5.87187 3.28956,10.85072 4.44597,20.15831 3.25737,26.2175 -1.39677,7.12032 -5.37824,11.46045 -12.85262,14.01039 -2.84019,0.96896 -4.24452,1.16555 -9.18014,1.28513 -4.08008,0.0989 -6.56696,-0.0462 -8.29521,-0.48376 z"
           style="opacity:1;fill:#ff00ff;fill-opacity:1;fill-rule:nonzero;stroke:#b70097;stroke-width:1.347;stroke-linecap:round;stroke-linejoin:round;stroke-miterlimit:4;stroke-dasharray:none;stroke-opacity:1" />
      </g>
    </g>
  </g>
</svg>
